<svg xmlns="http://www.w3.org/2000/svg" viewBox="5 6 357 253"><path d="M 339,195 L 336,191 L 333,191 L 332,190 L 323,190 L 322,191 L 317,192 L 314,194 L 312,194 L 296,200 L 293,200 L 292,201 L 289,201 L 285,203 L 277,204 L 272,206 L 268,206 L 267,207 L 263,207 L 262,208 L 257,208 L 256,209 L 242,210 L 241,211 L 235,211 L 234,212 L 226,212 L 225,213 L 213,213 L 212,214 L 197,214 L 196,215 L 168,215 L 167,214 L 151,214 L 150,213 L 130,212 L 129,211 L 124,211 L 123,210 L 118,210 L 117,209 L 112,209 L 111,208 L 107,208 L 106,207 L 99,206 L 98,205 L 90,203 L 87,201 L 85,201 L 75,196 L 68,188 L 68,186 L 75,179 L 88,172 L 90,172 L 101,167 L 104,167 L 108,165 L 111,165 L 115,163 L 118,163 L 119,162 L 122,162 L 127,160 L 131,160 L 132,159 L 136,159 L 137,158 L 143,158 L 144,157 L 149,157 L 150,156 L 156,156 L 157,155 L 165,155 L 166,154 L 189,153 L 190,152 L 204,152 L 205,151 L 227,151 L 228,150 L 236,150 L 237,149 L 243,149 L 244,148 L 247,148 L 248,147 L 251,147 L 252,146 L 257,145 L 265,141 L 272,135 L 276,127 L 276,118 L 272,112 L 266,109 L 253,109 L 252,110 L 240,111 L 239,112 L 234,112 L 233,113 L 185,114 L 184,115 L 170,115 L 169,116 L 151,117 L 150,118 L 133,120 L 132,121 L 128,121 L 127,122 L 123,122 L 122,123 L 111,125 L 107,127 L 97,129 L 96,130 L 91,131 L 88,133 L 80,135 L 66,142 L 64,142 L 58,146 L 51,149 L 36,159 L 30,165 L 29,165 L 19,177 L 15,185 L 14,191 L 13,192 L 13,199 L 14,200 L 15,206 L 21,216 L 30,224 L 48,234 L 50,234 L 55,237 L 57,237 L 67,241 L 70,241 L 71,242 L 74,242 L 79,244 L 83,244 L 84,245 L 88,245 L 89,246 L 94,246 L 95,247 L 100,247 L 101,248 L 108,248 L 109,249 L 117,249 L 118,250 L 132,250 L 133,251 L 183,251 L 184,250 L 197,250 L 198,249 L 207,249 L 208,248 L 216,248 L 217,247 L 225,247 L 226,246 L 237,245 L 238,244 L 242,244 L 243,243 L 247,243 L 248,242 L 252,242 L 253,241 L 257,241 L 258,240 L 273,237 L 274,236 L 297,229 L 320,218 L 323,215 L 331,210 L 338,202 Z M 354,47 L 350,38 L 347,34 L 337,26 L 331,23 L 326,22 L 323,20 L 320,20 L 319,19 L 316,19 L 315,18 L 312,18 L 307,16 L 292,15 L 291,14 L 245,14 L 244,15 L 227,16 L 226,17 L 220,17 L 219,18 L 213,18 L 212,19 L 207,19 L 206,20 L 197,21 L 192,23 L 188,23 L 187,24 L 179,25 L 175,27 L 172,27 L 168,29 L 165,29 L 161,31 L 158,31 L 157,32 L 140,37 L 137,39 L 135,39 L 127,43 L 125,43 L 118,47 L 116,47 L 91,60 L 68,76 L 54,90 L 49,100 L 49,111 L 51,115 L 55,119 L 59,121 L 61,121 L 62,122 L 73,122 L 81,119 L 94,107 L 111,96 L 116,94 L 118,92 L 136,83 L 138,83 L 143,80 L 145,80 L 158,74 L 160,74 L 167,71 L 170,71 L 180,67 L 183,67 L 187,65 L 198,63 L 199,62 L 203,62 L 204,61 L 208,61 L 209,60 L 213,60 L 214,59 L 219,59 L 220,58 L 224,58 L 225,57 L 242,56 L 243,55 L 270,54 L 271,55 L 286,56 L 287,57 L 290,57 L 291,58 L 296,59 L 302,63 L 303,65 L 303,76 L 305,80 L 309,84 L 316,87 L 322,87 L 323,88 L 324,87 L 329,87 L 332,85 L 336,84 L 343,79 L 350,70 L 354,60 Z" fill="#20AC93" fill-rule="evenodd"/></svg>
